<?xml version="1.0" encoding="UTF-8" standalone="no"?>
<!-- Created with Inkscape (http://www.inkscape.org/) -->

<svg
   xmlns:dc="http://purl.org/dc/elements/1.1/"
   xmlns:cc="http://creativecommons.org/ns#"
   xmlns:rdf="http://www.w3.org/1999/02/22-rdf-syntax-ns#"
   xmlns:svg="http://www.w3.org/2000/svg"
   xmlns="http://www.w3.org/2000/svg"
   xmlns:sodipodi="http://sodipodi.sourceforge.net/DTD/sodipodi-0.dtd"
   xmlns:inkscape="http://www.inkscape.org/namespaces/inkscape"
   width="370.18198"
   height="166.65018"
   id="svg2"
   version="1.1"
   inkscape:version="0.48.2 r9819"
   sodipodi:docname="New document 1">
  <defs
     id="defs4" />
  <sodipodi:namedview
     id="base"
     pagecolor="#ffffff"
     bordercolor="#666666"
     borderopacity="1.0"
     inkscape:pageopacity="0.0"
     inkscape:pageshadow="2"
     inkscape:zoom="1.33125"
     inkscape:cx="93.200694"
     inkscape:cy="0.9375365"
     inkscape:document-units="px"
     inkscape:current-layer="layer1"
     showgrid="false"
     width="651.5px"
     borderlayer="true"
     fit-margin-top="0"
     fit-margin-left="0"
     fit-margin-right="0"
     fit-margin-bottom="0"
     inkscape:window-width="1280"
     inkscape:window-height="999"
     inkscape:window-x="0"
     inkscape:window-y="24"
     inkscape:window-maximized="1" />
  <metadata
     id="metadata7">
    <rdf:RDF>
      <cc:Work
         rdf:about="">
        <dc:format>image/svg+xml</dc:format>
        <dc:type
           rdf:resource="http://purl.org/dc/dcmitype/StillImage" />
        <dc:title></dc:title>
      </cc:Work>
    </rdf:RDF>
  </metadata>
  <g
     inkscape:label="Layer 1"
     inkscape:groupmode="layer"
     id="layer1"
     transform="translate(-134.25714,-213.93958)">
    <text
       xml:space="preserve"
       style="font-size:65.89212799px;font-style:normal;font-variant:normal;font-weight:500;font-stretch:normal;text-align:start;line-height:125%;letter-spacing:0px;word-spacing:0px;writing-mode:lr-tb;text-anchor:start;fill:#000000;fill-opacity:1;stroke:none;font-family:Douar;-inkscape-font-specification:Douar Medium"
       x="131.95091"
       y="379.60138"
       id="text2985"
       sodipodi:linespacing="125%"><tspan
         sodipodi:role="line"
         id="tspan2987"
         x="131.95091"
         y="379.60138">KOMARRO</tspan></text>
    <g
       transform="matrix(0.53077354,0,0,0.53077354,246.05318,213.93954)"
       style="overflow:visible"
       id="g3">
      <path
         inkscape:connector-curvature="0"
         d="m 272.622,6.907 c 0,4.198 -1.661,10.526 -1.661,8.304 -1.795,1.795 -13.37,14.06 -16.607,13.286 -0.27,0 -25.184,15.458 -27.402,19.929 0.249,-1.296 -0.305,-1.296 -1.66,0 0.903,-0.266 1.104,-0.005 0.604,0.782 6.156,1.412 25.968,-1.737 25.968,9.182 0,8.086 -18.577,12.456 -24.08,12.456 3.813,-0.221 -5.203,2.821 -3.321,0.831 0,5.769 -95.09,20.423 -94.289,22.301 2.503,5.871 8.322,9.553 1.636,16.245 -1.021,1.022 -14.153,7.048 -14.223,6.824 4.186,13.578 -5.276,7.758 -12.749,12.138 -6.363,3.729 3.165,11.18 5.298,14.853 12.887,22.18 54.521,4.273 60.352,-15.896 -4.515,0.106 -1.836,3.27 -2.597,3.999 -3.871,3.706 -6.936,-10.242 -2.801,-14.378 4.995,-4.995 -3.019,-13.813 -6.228,-17.022 -0.322,0.726 -11.91,-2.557 -13.569,-2.486 -13.754,0.59 0.49,-7.546 9.53,-2.689 1.336,0.718 11.891,-6.067 14.62,-7.281 6.666,-2.965 20.519,-1.689 25.955,3.321 3.75,3.463 2.684,7.168 8.304,0.831 4.783,-5.397 6.267,12.14 5.813,14.947 9.698,-1.702 25.426,-25.764 28.232,-3.322 23.389,-11.694 5.16,8.161 4.982,15.777 0,6.414 -4.774,23.601 -8.571,32.342 -1.834,4.222 -3.054,11.449 -3.054,16.235 0,12.061 0.882,9.369 12.814,7.977 18.571,-2.166 9.919,10.988 7.114,8.216 0.035,-0.097 -30.959,3.846 -24.606,8.118 1.955,1.313 17.345,-1.476 19.194,-1.476 6.636,0 13.694,1.167 19.528,4.151 18.128,9.284 -30.457,10.881 -32.932,8.07 -0.856,-0.972 -4.979,0.882 -6.926,0.233 -8.539,-2.843 -5.467,-6.973 -4.708,-13.548 0.357,-3.088 -20.29,-0.253 -3.786,-13.569 10.202,-8.232 16.986,-62.563 11.4,-62.563 -4.563,0 -16.976,1.109 -17.854,6.643 -0.462,2.928 -2.852,27.688 -1.275,29.114 6.014,5.439 -9.021,49.632 -11.18,56.414 10.814,0.13 24.507,2.917 32.385,10.795 10.271,10.271 -0.785,9.014 -8.222,7.811 -2.055,-0.332 -42.455,-7.095 -34.91,-13.103 9.237,-7.356 10.747,-27.424 12.832,-38.498 2.136,-11.353 4.725,-22.691 4.618,-34.294 -0.138,-15.254 3.629,-18.438 -10.854,-14.917 6.286,0.923 9.25,4.748 9.134,4.982 -2.39,0.757 -4.327,2.141 -5.813,4.151 -6.133,6.133 -24.448,10.918 -34.253,17.508 -7.237,4.866 -17.718,9.758 -25.533,7.403 -6.928,-2.09 -16.181,1.259 -22.005,-4.567 -3.338,-3.337 -12.606,-10.024 -17.853,-9.549 4.665,6.17 26.153,47.022 13.579,45.216 -4.229,-0.606 -16.105,-5.188 -19.662,-2.613 -3.929,2.844 0.615,25.541 1.616,29.938 0.703,3.089 10.26,25.56 9.343,27.104 -7.575,12.747 -20.59,-58.63 -19.823,-58.126 0,0.639 0.778,10.795 -0.415,10.795 -7.303,0 -11.308,-0.831 -19.514,-0.831 0.356,1.425 6.205,22.421 2.076,22.421 -7.341,0 -8.021,-3.17 -17.022,-1.661 -12.309,2.065 -28.306,9.907 -40.688,4.151 -14.605,-6.787 18.556,-13.03 20.833,-13.138 4.749,-0.222 32.117,3.912 30.707,-1.442 -2.705,-10.268 -2.898,-9.417 -12.512,-9.5 -3.817,-0.032 -13.774,-4.097 -14.947,-8.304 -1.935,-6.934 17.616,-6.882 20.759,-3.321 -6.75,-9.099 -10.646,-27.847 -11.803,-39.265 -0.428,-4.218 -5.581,-22.8 -1.78,-24.087 0.331,-0.112 15.581,5.068 15.36,3.728 -1.212,-7.376 2.329,-2.677 7.012,-0.335 4.704,2.353 24.065,16.165 28.578,9.307 -7.889,0.716 -10.505,-8.536 -13.286,-12.455 -3.315,-4.675 -14.402,-1.3 -19.099,-9.134 -9.533,-15.902 16.203,-26.778 27.402,-24.911 0,-9.93 -16.662,-6.109 -22.861,-8.174 -10.216,-3.404 -14.965,4.414 -22.809,4.853 7.118,4.745 24.071,0 32.385,0 -2.434,0.057 -3.534,3.335 0,2.491 -3.874,2.873 -23.463,3.352 -23.25,2.491 C 45.751,94.231 35.152,88.21 33.418,85.871 25.285,74.9 54.812,74.17 58.387,74.17 54.867,74.483 45.251,71.377 42.579,69.372 35.162,63.809 24.574,64.914 17.284,60.053 7.037,53.219 -10.652,42.284 8.564,37.63 18.791,35.152 75.947,63.411 69.181,69.184 55.493,60.518 27.07,32.942 8.164,42.397 -2.641,47.799 29.784,60.256 33.955,61.539 50.566,66.65 66.672,75.621 84.128,74.167 81.907,73.947 68.766,65.626 71.442,63.904 c 3.856,-2.48 11.408,2.677 15.177,3.62 -1.037,-3.11 -4.495,-6.946 -4.239,-10.286 0.429,-5.61 12.941,5.703 13.788,6.549 3.578,3.578 17.104,18.258 16.111,22.869 -1.487,6.904 -10.051,-13.484 -13.531,-8.283 -2.693,4.025 -6.014,0.105 -8.809,6.369 -2.999,6.722 5.199,8.394 7.474,13.506 5.526,-5.526 24.464,-16.704 30.724,-5.813 -4.425,-4.009 49.476,-55.428 57.048,-59.971 19.692,-11.814 65.693,-47.301 87.437,-25.557"
         id="path5"
         style="fill-rule:evenodd" />
      <path
         inkscape:connector-curvature="0"
         d="m 268.469,8.567 c -30.751,36.059 -78.963,46.54 -120.402,67.26 3.287,-7.434 26.571,-23.446 26.571,-27.402 8.051,-10.655 83.867,-60.816 93.831,-39.858"
         id="path7"
         style="fill:#fefefe;fill-rule:evenodd" />
      <path
         inkscape:connector-curvature="0"
         d="m 257.675,26.835 c 0,1.108 0,1.108 0,0"
         id="path9"
         style="fill:#fefefe;fill-rule:evenodd" />
      <path
         inkscape:connector-curvature="0"
         d="m 237.746,55.068 c 2.388,-0.241 4.483,0.418 6.286,1.975 3.631,6.567 -86.166,23.821 -90.983,25.428 6.354,-4.234 22.755,-10.795 30.309,-10.795 5.56,0 9.858,-4.585 15.361,-6.643 14.427,-5.394 23.055,-9.965 39.027,-9.965"
         id="path11"
         style="fill:#fefefe;fill-rule:evenodd" />
      <path
         inkscape:connector-curvature="0"
         d="m 186.263,64.202 c -1.661,0.831 -3.321,1.661 -4.982,2.491 1.661,-0.83 3.321,-1.66 4.982,-2.491"
         id="path13"
         style="fill:#fefefe;fill-rule:evenodd" />
      <path
         inkscape:connector-curvature="0"
         d="M 198.718,64.202"
         id="path15"
         style="fill:#fefefe;fill-rule:evenodd" />
      <path
         inkscape:connector-curvature="0"
         d="m 95.753,72.506 c -0.01,0.432 -5.042,-8.175 -5.813,-8.304 2.268,0.8 6.373,5.355 5.813,8.304"
         id="path17"
         style="fill:#fefefe;fill-rule:evenodd" />
      <path
         inkscape:connector-curvature="0"
         d="m 231.103,70.845 c -0.276,0 -0.554,0 -0.83,0 0.276,0 0.554,0 0.83,0"
         id="path19"
         style="fill-rule:evenodd" />
      <path
         inkscape:connector-curvature="0"
         d="m 221.138,73.336 c 1.108,0 1.108,0 0,0"
         id="path21"
         style="fill:#fefefe;fill-rule:evenodd" />
      <path
         inkscape:connector-curvature="0"
         d="m 217.817,74.167 c 1.107,0 1.107,0 0,0"
         id="path23"
         style="fill:#fefefe;fill-rule:evenodd" />
      <path
         inkscape:connector-curvature="0"
         d="m 47.592,89.944 c 1.029,-0.349 3.073,-0.28 0,0"
         id="path25"
         style="fill:#fefefe;fill-rule:evenodd" />
      <path
         inkscape:connector-curvature="0"
         d="m 90.771,97.417 c 12.873,8.221 -29.063,29.022 -29.063,12.871 0,-7.607 1.316,-13.033 10.406,-16.063 10.956,-3.651 11.902,3.094 18.657,3.192"
         id="path27"
         style="fill:#fefefe;fill-rule:evenodd" />
      <path
         inkscape:connector-curvature="0"
         d="m 128.968,103.23 c -6.453,6.453 -26.572,15.892 -26.572,0.415 0,-12.562 29.475,-12.557 26.572,-0.415"
         id="path29"
         style="fill:#fefefe;fill-rule:evenodd" />
      <path
         inkscape:connector-curvature="0"
         d="m 81.637,104.06 c -0.828,2.303 -4.982,0.957 -4.982,-0.415 0,-4.505 3.808,-0.279 4.982,0.415"
         id="path31"
         style="fill-rule:evenodd" />
      <path
         inkscape:connector-curvature="0"
         d="m 230.273,108.212 c -6.569,2.19 -13.357,3.623 -19.93,5.813 4.23,-4.733 13.959,-10.349 19.93,-12.456 0,2.214 0,4.429 0,6.643"
         id="path33"
         style="fill:#fefefe;fill-rule:evenodd" />
      <path
         inkscape:connector-curvature="0"
         d="m 114.021,104.06 c 1.956,8.183 -8.63,-0.853 -4.396,-1.7 1.593,0.25 3.059,0.817 4.396,1.7"
         id="path35"
         style="fill-rule:evenodd" />
      <path
         inkscape:connector-curvature="0"
         d="m 204.531,104.891 c -2.235,-2.418 -6.011,2.347 -7.473,3.321 1.055,-0.267 9.089,-9.047 7.473,-3.321"
         id="path37"
         style="fill:#fefefe;fill-rule:evenodd" />
      <path
         inkscape:connector-curvature="0"
         d="m 241.068,108.212 c 2.56,2.12 -4.644,11.606 -4.152,14.947 0,-2.911 -1.838,-9.317 0.83,-11.625 0.037,0 2.014,-2.709 4.115,-4.302 1.455,-1.196 1.189,-0.87 -0.793,0.98"
         id="path39"
         style="fill:#fefefe;fill-rule:evenodd" />
      <path
         inkscape:connector-curvature="0"
         d="m 104.887,116.516 c -0.875,5.169 -9.37,17.475 -17.438,12.456 -9.202,-5.727 9.158,-17.524 8.304,-21.59 1.5,3.442 4.827,8.399 9.134,9.134"
         id="path41"
         style="fill:#fefefe;fill-rule:evenodd" />
      <path
         inkscape:connector-curvature="0"
         d="m 180.451,115.686 c 0.696,-4.514 7.542,-3.847 8.304,-8.304 0.496,2.712 -6.402,7.632 -8.304,8.304"
         id="path43"
         style="fill:#fefefe;fill-rule:evenodd" />
      <path
         inkscape:connector-curvature="0"
         d="m 247.71,111.533 c 0,-1.107 0,-1.107 0,0"
         id="path45"
         style="fill-rule:evenodd" />
      <path
         inkscape:connector-curvature="0"
         d="m 197.058,114.024 c 1.033,0 -9.889,5.493 -10.795,5.813 3.606,-2.491 6.651,-5.536 9.134,-9.134 0.554,1.107 1.107,2.214 1.661,3.321"
         id="path47"
         style="fill:#fefefe;fill-rule:evenodd" />
      <path
         inkscape:connector-curvature="0"
         d="m 246.88,114.024 c -0.554,0 -1.107,0 -1.661,0 0.554,0 1.108,0 1.661,0"
         id="path49"
         style="fill:#fefefe;fill-rule:evenodd" />
      <path
         inkscape:connector-curvature="0"
         d="m 244.389,115.686 c 0,1.106 0,1.106 0,0"
         id="path51"
         style="fill:#fefefe;fill-rule:evenodd" />
      <path
         inkscape:connector-curvature="0"
         d="m 114.852,119.007 c 0.479,2.605 -4.152,3.876 -4.152,4.567 0.657,-2.443 0.104,-4.519 -1.661,-6.228 2.398,-2.187 3.494,1.606 5.813,1.661"
         id="path53"
         style="fill:#fefefe;fill-rule:evenodd" />
      <path
         inkscape:connector-curvature="0"
         d="m 243.558,119.837 c 1.357,-1.355 0.47,0 0,0"
         id="path55"
         style="fill-rule:evenodd" />
      <path
         inkscape:connector-curvature="0"
         d="m 81.637,124.819 c -0.786,-0.865 -1.074,-4.936 0.831,-4.982 -0.278,1.661 -0.554,3.322 -0.831,4.982"
         id="path57"
         style="fill:#fefefe;fill-rule:evenodd" />
      <path
         inkscape:connector-curvature="0"
         d="m 185.433,120.667 c 0,-1.106 0,-1.106 0,0"
         id="path59"
         style="fill:#fefefe;fill-rule:evenodd" />
      <path
         inkscape:connector-curvature="0"
         d="m 242.728,121.498 c -3.122,3.121 -0.342,-0.793 0,0"
         id="path61"
         style="fill:#fefefe;fill-rule:evenodd" />
      <path
         inkscape:connector-curvature="0"
         d="m 241.068,124.819 c 0,-1.107 0,-1.107 0,0"
         id="path63"
         style="fill:#fefefe;fill-rule:evenodd" />
      <path
         inkscape:connector-curvature="0"
         d="m 241.068,125.65 c 0,2.952 0,-2.953 0,0"
         id="path65"
         style="fill:#fefefe;fill-rule:evenodd" />
      <path
         inkscape:connector-curvature="0"
         d="m 57.556,131.462 c 1.289,9.341 35.505,72.665 2.233,54.201 -3.147,-1.746 -9.067,-15.934 -9.859,-20.824 -2.058,-12.711 -6.49,-24.307 -6.49,-37.528 4.511,2.043 9.217,3.426 14.116,4.151"
         id="path67"
         style="fill:#fefefe;fill-rule:evenodd" />
      <path
         inkscape:connector-curvature="0"
         d="m 86.619,141.427 c -0.826,8.256 1.104,32.719 -6.643,37.366 -2.631,-15.786 -9.762,-28.479 -14.947,-43.179 6.878,2.424 13.877,7.057 21.59,5.813"
         id="path69"
         style="fill:#fefefe;fill-rule:evenodd" />
      <path
         inkscape:connector-curvature="0"
         d="m 108.208,179.624 c -24.45,3.893 -15.777,-20.774 -15.777,-34.876 4.972,10.938 9.123,24.893 15.777,34.876"
         id="path71"
         style="fill:#fefefe;fill-rule:evenodd" />
      <path
         inkscape:connector-curvature="0"
         d="m 131.459,219.481 c 0,6.912 -4.715,8.449 -8.216,12.147 0.405,-0.429 -18.482,15.046 -16.834,9.152 4.065,-14.536 7.885,-31.447 25.05,-21.299"
         id="path73"
         style="fill-rule:evenodd" />
      <path
         inkscape:connector-curvature="0"
         d="m 125.646,219.481 c 0.682,4.033 -4.355,6.847 -6.643,9.134 2.271,-3.585 1.548,-9.134 6.643,-9.134"
         id="path75"
         style="fill:#fefefe;fill-rule:evenodd" />
      <path
         inkscape:connector-curvature="0"
         d="m 122.325,221.973 c -1.47,1.469 -0.762,0.405 0,0"
         id="path77"
         style="fill-rule:evenodd" />
      <path
         inkscape:connector-curvature="0"
         d="m 86.619,236.919 c 2.291,1.225 3.951,3.023 4.982,5.397 0,1.996 -21.027,-8.017 -22.174,-11.093 -2.148,-5.762 4.711,-7.563 8.794,-4.873 4.708,3.101 4.943,7.519 8.398,10.569"
         id="path79"
         style="fill-rule:evenodd" />
      <path
         inkscape:connector-curvature="0"
         d="m 79.146,232.768 c -1.733,-0.999 -3.394,-2.106 -4.982,-3.321 2.592,-0.269 4.253,0.838 4.982,3.321"
         id="path81"
         style="fill:#fefefe;fill-rule:evenodd" />
    </g>
  </g>
</svg>
